<svg version="1.0" xmlns="http://www.w3.org/2000/svg" preserveAspectRatio="xMidYMid meet" viewBox="377.18 447.03 523.83 402.98">

<g transform="translate(0.000000,1280.000000) scale(0.100000,-0.100000)" fill="#000000" stroke="none">
<path d="M8825 8294 c-914 -294 -1152 -384 -1565 -590 -372 -186 -641 -375 -890 -624 -138 -138 -243 -265 -324 -393 -51 -81 -153 -289 -217 -441 -29 -70 -55 -124 -57 -118 -4 13 32 134 75 246 19 49 32 95 29 102 -8 20 -353 312 -457 386 -119 86 -291 172 -394 200 -114 30 -306 29 -389 -1 -73 -26 -127 -57 -190 -109 -49 -41 -122 -131 -137 -168 -7 -20 -16 -22 -91 -23 -95 -1 -175 -14 -267 -42 -86 -26 -182 -70 -179 -81 2 -5 73 -33 159 -61 85 -29 181 -68 213 -87 114 -69 187 -177 266 -395 53 -145 134 -319 192 -411 249 -397 628 -671 1095 -790 264 -67 601 -95 901 -76 103 7 201 16 217 21 l30 8 -47 24 c-80 39 -56 52 43 23 75 -22 210 -92 299 -155 41 -29 161 -137 265 -239 206 -203 202 -200 319 -200 183 1 370 92 391 192 10 44 -22 97 -85 139 -30 20 -136 81 -235 134 -569 307 -674 382 -1002 713 l-211 214 -94 -13 c-94 -13 -334 -17 -345 -6 -3 4 22 36 55 71 73 79 122 160 209 349 207 452 325 638 543 858 324 327 715 533 1580 829 284 97 321 113 366 162 64 67 113 204 114 315 0 87 -18 91 -185 37z m-3997 -1544 c81 -50 95 -151 30 -217 -56 -55 -136 -58 -197 -7 -123 103 29 308 167 224z"/>
<path d="M4306 8152 c-8 -14 14 -108 52 -227 59 -181 202 -576 267 -738 6 -14 14 -16 44 -11 20 4 37 8 38 9 7 5 -61 578 -78 654 -24 107 -112 238 -192 286 -48 28 -121 43 -131 27z"/>
<path d="M4677 7832 c-3 -4 2 -50 9 -102 12 -86 33 -287 50 -477 l6 -73 88 0 89 0 6 53 c4 28 7 129 8 222 2 148 0 175 -17 207 -26 54 -93 126 -135 147 -42 21 -98 34 -104 23z"/>
<path d="M8620 7746 c-367 -125 -535 -187 -735 -271 -187 -78 -414 -189 -419 -205 -9 -28 -37 -232 -33 -237 3 -2 90 23 194 57 103 33 357 110 563 171 539 158 533 156 598 199 94 63 138 147 130 247 -5 59 -33 107 -64 110 -10 1 -116 -31 -234 -71z"/>
<path d="M4975 7607 c-2 -6 -6 -108 -9 -224 -5 -211 -5 -213 15 -213 12 0 62 -14 111 -30 50 -17 92 -29 94 -28 10 10 35 241 31 280 -13 108 -99 201 -205 221 -22 5 -34 3 -37 -6z"/>
<path d="M5257 7373 c-4 -3 -7 -27 -7 -52 -1 -25 -7 -82 -15 -126 -8 -44 -15 -87 -15 -95 0 -8 23 -26 51 -40 29 -14 74 -40 101 -57 27 -18 51 -33 53 -33 9 0 25 111 25 178 0 57 -5 85 -18 107 -47 75 -149 145 -175 118z"/>
<path d="M8530 7305 c-360 -106 -637 -188 -665 -195 -36 -9 -200 -59 -339 -104 -55 -18 -103 -39 -107 -47 -10 -19 -41 -190 -35 -196 2 -2 107 16 232 41 126 25 358 70 517 101 158 31 313 65 344 76 105 36 183 93 219 162 26 48 15 209 -13 206 -5 0 -73 -20 -153 -44z"/>
<path d="M5476 7068 c-25 -128 -26 -124 69 -194 l83 -62 6 30 c12 63 6 141 -15 185 -18 38 -100 123 -119 123 -4 0 -15 -37 -24 -82z"/>
<path d="M5657 6868 l-14 -63 41 -44 c22 -24 77 -75 121 -114 70 -63 80 -69 83 -50 7 50 -111 260 -173 307 -18 14 -36 26 -39 26 -2 0 -11 -28 -19 -62z"/>
<path d="M8305 6884 c-116 -28 -490 -98 -787 -149 -75 -13 -141 -26 -146 -29 -6 -3 -18 -36 -28 -73 -9 -38 -24 -81 -31 -96 -8 -16 -13 -31 -11 -33 2 -2 46 1 98 6 52 5 187 16 300 25 113 9 275 25 360 35 140 17 162 23 230 57 59 30 82 48 107 86 34 51 49 116 38 166 -8 36 0 35 -130 5z"/>
<path d="M8065 6519 c-59 -10 -362 -37 -583 -50 l-193 -12 -44 -93 c-25 -51 -45 -98 -45 -104 0 -6 28 -10 68 -11 37 0 153 -4 257 -8 350 -13 451 4 539 87 47 45 66 87 66 146 0 50 -8 56 -65 45z"/>
<path d="M7137 6166 c-16 -26 -47 -67 -68 -93 -21 -26 -39 -51 -39 -54 0 -4 19 -9 43 -12 23 -3 112 -17 197 -32 190 -33 329 -32 396 2 71 38 134 125 134 189 0 6 -96 15 -272 23 -150 7 -293 15 -318 18 -44 4 -45 3 -73 -41z"/>
<path d="M6928 5924 c-35 -31 -87 -72 -115 -92 -29 -19 -53 -38 -53 -43 0 -13 242 -88 325 -101 128 -20 256 15 309 85 33 43 60 107 49 117 -4 4 -55 16 -113 25 -58 9 -156 28 -218 41 -63 13 -115 24 -117 24 -3 0 -33 -25 -67 -56z"/>
<path d="M6772 4799 c-40 -4 -76 -10 -79 -13 -3 -3 42 -54 100 -113 58 -59 139 -147 179 -195 123 -147 170 -168 391 -176 95 -3 147 -1 147 6 0 26 -337 330 -456 411 -114 77 -167 92 -282 80z"/>
</g>
</svg>